<mxfile host="app.diagrams.net" modified="2023-06-16T10:45:49.086Z" agent="Mozilla/5.0 (X11; Linux x86_64) AppleWebKit/537.36 (KHTML, like Gecko) Chrome/112.0.0.0 Safari/537.36" etag="AF8vATHmjuLExDeI97Z4" version="21.4.0" type="github">
  <diagram name="Page-1" id="FIvBdgfq9ycOvnHmZ2SL">
    <mxGraphModel dx="2780" dy="1151" grid="1" gridSize="10" guides="1" tooltips="1" connect="1" arrows="1" fold="1" page="1" pageScale="1" pageWidth="827" pageHeight="1169" math="0" shadow="0">
      <root>
        <mxCell id="0" />
        <mxCell id="1" parent="0" />
        <mxCell id="Oas6D64xn_ZSXrLgNk8P-53" style="edgeStyle=orthogonalEdgeStyle;rounded=0;orthogonalLoop=1;jettySize=auto;html=1;exitX=0.5;exitY=1;exitDx=0;exitDy=0;entryX=0.5;entryY=0;entryDx=0;entryDy=0;endArrow=block;endFill=0;" edge="1" parent="1" source="Oas6D64xn_ZSXrLgNk8P-54" target="Oas6D64xn_ZSXrLgNk8P-99">
          <mxGeometry relative="1" as="geometry" />
        </mxCell>
        <mxCell id="Oas6D64xn_ZSXrLgNk8P-54" value="Aléa" style="swimlane;fontStyle=1;align=center;verticalAlign=top;childLayout=stackLayout;horizontal=1;startSize=26;horizontalStack=0;resizeParent=1;resizeParentMax=0;resizeLast=0;collapsible=1;marginBottom=0;fillColor=#0050ef;strokeColor=#001DBC;fontColor=#ffffff;" vertex="1" parent="1">
          <mxGeometry x="348" y="350" width="160" height="133" as="geometry" />
        </mxCell>
        <mxCell id="Oas6D64xn_ZSXrLgNk8P-55" value="+ nature&#xa;+ fréquence&#xa;+ intensité: type intensité&#xa;+ localisation&#xa;+ date&#xa;+ probabilité" style="text;strokeColor=none;fillColor=none;align=left;verticalAlign=top;spacingLeft=4;spacingRight=4;overflow=hidden;rotatable=0;points=[[0,0.5],[1,0.5]];portConstraint=eastwest;" vertex="1" parent="Oas6D64xn_ZSXrLgNk8P-54">
          <mxGeometry y="26" width="160" height="99" as="geometry" />
        </mxCell>
        <mxCell id="Oas6D64xn_ZSXrLgNk8P-56" value="" style="line;strokeWidth=1;fillColor=none;align=left;verticalAlign=middle;spacingTop=-1;spacingLeft=3;spacingRight=3;rotatable=0;labelPosition=right;points=[];portConstraint=eastwest;" vertex="1" parent="Oas6D64xn_ZSXrLgNk8P-54">
          <mxGeometry y="125" width="160" height="8" as="geometry" />
        </mxCell>
        <mxCell id="Oas6D64xn_ZSXrLgNk8P-64" style="edgeStyle=orthogonalEdgeStyle;rounded=0;orthogonalLoop=1;jettySize=auto;html=1;exitX=0.75;exitY=0;exitDx=0;exitDy=0;entryX=0;entryY=0.25;entryDx=0;entryDy=0;endArrow=block;endFill=0;" edge="1" parent="1" source="Oas6D64xn_ZSXrLgNk8P-66" target="Oas6D64xn_ZSXrLgNk8P-54">
          <mxGeometry relative="1" as="geometry">
            <mxPoint x="-5" y="478" as="targetPoint" />
          </mxGeometry>
        </mxCell>
        <mxCell id="Oas6D64xn_ZSXrLgNk8P-65" style="edgeStyle=orthogonalEdgeStyle;rounded=0;orthogonalLoop=1;jettySize=auto;html=1;exitX=0;exitY=0.5;exitDx=0;exitDy=0;entryX=1;entryY=0.25;entryDx=0;entryDy=0;endArrow=none;endFill=0;startArrow=none;" edge="1" parent="1" source="Oas6D64xn_ZSXrLgNk8P-98" target="Oas6D64xn_ZSXrLgNk8P-102">
          <mxGeometry relative="1" as="geometry">
            <mxPoint x="45" y="337" as="targetPoint" />
            <mxPoint x="215" y="1037" as="sourcePoint" />
          </mxGeometry>
        </mxCell>
        <mxCell id="Oas6D64xn_ZSXrLgNk8P-66" value="Occurrence de vecteurs" style="swimlane;fontStyle=1;align=center;verticalAlign=top;childLayout=stackLayout;horizontal=1;startSize=26;horizontalStack=0;resizeParent=1;resizeParentMax=0;resizeLast=0;collapsible=1;marginBottom=0;fillColor=#cce5ff;strokeColor=#36393d;" vertex="1" parent="1">
          <mxGeometry x="-582" y="483" width="190" height="88" as="geometry" />
        </mxCell>
        <mxCell id="Oas6D64xn_ZSXrLgNk8P-67" value="+ présence: boolean&#xa;+ abondance: real&#xa;+ probabilité de présence: real" style="text;strokeColor=none;fillColor=none;align=left;verticalAlign=top;spacingLeft=4;spacingRight=4;overflow=hidden;rotatable=0;points=[[0,0.5],[1,0.5]];portConstraint=eastwest;" vertex="1" parent="Oas6D64xn_ZSXrLgNk8P-66">
          <mxGeometry y="26" width="190" height="52" as="geometry" />
        </mxCell>
        <mxCell id="Oas6D64xn_ZSXrLgNk8P-68" value="" style="line;strokeWidth=1;fillColor=none;align=left;verticalAlign=middle;spacingTop=-1;spacingLeft=3;spacingRight=3;rotatable=0;labelPosition=right;points=[];portConstraint=eastwest;" vertex="1" parent="Oas6D64xn_ZSXrLgNk8P-66">
          <mxGeometry y="78" width="190" height="10" as="geometry" />
        </mxCell>
        <mxCell id="Oas6D64xn_ZSXrLgNk8P-72" value="Lieu/espace géographique" style="swimlane;fontStyle=1;align=center;verticalAlign=top;childLayout=stackLayout;horizontal=1;startSize=26;horizontalStack=0;resizeParent=1;resizeParentMax=0;resizeLast=0;collapsible=1;marginBottom=0;fillColor=#eeeeee;strokeColor=#36393d;" vertex="1" parent="1">
          <mxGeometry x="550" y="661" width="170" height="104" as="geometry">
            <mxRectangle x="600" y="310" width="90" height="26" as="alternateBounds" />
          </mxGeometry>
        </mxCell>
        <mxCell id="Oas6D64xn_ZSXrLgNk8P-73" value="+ nom: char&#xa;+ lat: real&#xa;+ long: real&#xa;+ limites: polygone" style="text;strokeColor=none;fillColor=none;align=left;verticalAlign=top;spacingLeft=4;spacingRight=4;overflow=hidden;rotatable=0;points=[[0,0.5],[1,0.5]];portConstraint=eastwest;" vertex="1" parent="Oas6D64xn_ZSXrLgNk8P-72">
          <mxGeometry y="26" width="170" height="70" as="geometry" />
        </mxCell>
        <mxCell id="Oas6D64xn_ZSXrLgNk8P-74" value="" style="line;strokeWidth=1;fillColor=none;align=left;verticalAlign=middle;spacingTop=-1;spacingLeft=3;spacingRight=3;rotatable=0;labelPosition=right;points=[];portConstraint=eastwest;" vertex="1" parent="Oas6D64xn_ZSXrLgNk8P-72">
          <mxGeometry y="96" width="170" height="8" as="geometry" />
        </mxCell>
        <mxCell id="Oas6D64xn_ZSXrLgNk8P-75" value="Réceptivité territoriale (OMS)" style="swimlane;fontStyle=1;align=center;verticalAlign=top;childLayout=stackLayout;horizontal=1;startSize=26;horizontalStack=0;resizeParent=1;resizeParentMax=0;resizeLast=0;collapsible=1;marginBottom=0;" vertex="1" parent="1">
          <mxGeometry x="-588" y="260" width="210" height="80" as="geometry">
            <mxRectangle x="600" y="310" width="90" height="26" as="alternateBounds" />
          </mxGeometry>
        </mxCell>
        <mxCell id="Oas6D64xn_ZSXrLgNk8P-76" value="+ Réceptif: boolean&#xa;+ niveau de réceptivité: real &#xa;" style="text;strokeColor=none;fillColor=none;align=left;verticalAlign=top;spacingLeft=4;spacingRight=4;overflow=hidden;rotatable=0;points=[[0,0.5],[1,0.5]];portConstraint=eastwest;" vertex="1" parent="Oas6D64xn_ZSXrLgNk8P-75">
          <mxGeometry y="26" width="210" height="44" as="geometry" />
        </mxCell>
        <mxCell id="Oas6D64xn_ZSXrLgNk8P-77" value="" style="line;strokeWidth=1;fillColor=none;align=left;verticalAlign=middle;spacingTop=-1;spacingLeft=3;spacingRight=3;rotatable=0;labelPosition=right;points=[];portConstraint=eastwest;" vertex="1" parent="Oas6D64xn_ZSXrLgNk8P-75">
          <mxGeometry y="70" width="210" height="10" as="geometry" />
        </mxCell>
        <mxCell id="Oas6D64xn_ZSXrLgNk8P-79" style="edgeStyle=orthogonalEdgeStyle;rounded=0;orthogonalLoop=1;jettySize=auto;html=1;entryX=0.25;entryY=0;entryDx=0;entryDy=0;fontFamily=Helvetica;fontSize=12;endArrow=none;endFill=0;exitX=0.25;exitY=1;exitDx=0;exitDy=0;" edge="1" parent="1" source="Oas6D64xn_ZSXrLgNk8P-75" target="Oas6D64xn_ZSXrLgNk8P-66">
          <mxGeometry relative="1" as="geometry" />
        </mxCell>
        <mxCell id="Oas6D64xn_ZSXrLgNk8P-80" value="&amp;lt; &quot;en pratique&quot;&lt;br&gt;est équivalent à" style="edgeLabel;html=1;align=center;verticalAlign=middle;resizable=0;points=[];fontSize=12;fontFamily=Helvetica;" vertex="1" connectable="0" parent="Oas6D64xn_ZSXrLgNk8P-79">
          <mxGeometry x="-0.3789" relative="1" as="geometry">
            <mxPoint x="28" as="offset" />
          </mxGeometry>
        </mxCell>
        <mxCell id="Oas6D64xn_ZSXrLgNk8P-81" value="Occurrence de vecteurs infectés" style="swimlane;fontStyle=1;align=center;verticalAlign=top;childLayout=stackLayout;horizontal=1;startSize=26;horizontalStack=0;resizeParent=1;resizeParentMax=0;resizeLast=0;collapsible=1;marginBottom=0;fillColor=#dae8fc;strokeColor=#6c8ebf;gradientDirection=east;gradientColor=#E6D0DE;" vertex="1" parent="1">
          <mxGeometry x="-597" y="630" width="220" height="80" as="geometry" />
        </mxCell>
        <mxCell id="Oas6D64xn_ZSXrLgNk8P-82" value="+ présence: boolean&#xa;+ abondance: real" style="text;strokeColor=none;fillColor=none;align=left;verticalAlign=top;spacingLeft=4;spacingRight=4;overflow=hidden;rotatable=0;points=[[0,0.5],[1,0.5]];portConstraint=eastwest;" vertex="1" parent="Oas6D64xn_ZSXrLgNk8P-81">
          <mxGeometry y="26" width="220" height="44" as="geometry" />
        </mxCell>
        <mxCell id="Oas6D64xn_ZSXrLgNk8P-83" value="" style="line;strokeWidth=1;fillColor=none;align=left;verticalAlign=middle;spacingTop=-1;spacingLeft=3;spacingRight=3;rotatable=0;labelPosition=right;points=[];portConstraint=eastwest;" vertex="1" parent="Oas6D64xn_ZSXrLgNk8P-81">
          <mxGeometry y="70" width="220" height="10" as="geometry" />
        </mxCell>
        <mxCell id="Oas6D64xn_ZSXrLgNk8P-84" value="Moment/période" style="swimlane;fontStyle=1;align=center;verticalAlign=top;childLayout=stackLayout;horizontal=1;startSize=26;horizontalStack=0;resizeParent=1;resizeParentMax=0;resizeLast=0;collapsible=1;marginBottom=0;fillColor=#eeeeee;strokeColor=#36393d;" vertex="1" parent="1">
          <mxGeometry x="550" y="789" width="121" height="112" as="geometry">
            <mxRectangle x="600" y="310" width="90" height="26" as="alternateBounds" />
          </mxGeometry>
        </mxCell>
        <mxCell id="Oas6D64xn_ZSXrLgNk8P-85" value="+ nom: char&#xa;+ date: date&#xa;+ heure: heure&#xa;+ saison: char&#xa;+ ..." style="text;strokeColor=none;fillColor=none;align=left;verticalAlign=top;spacingLeft=4;spacingRight=4;overflow=hidden;rotatable=0;points=[[0,0.5],[1,0.5]];portConstraint=eastwest;" vertex="1" parent="Oas6D64xn_ZSXrLgNk8P-84">
          <mxGeometry y="26" width="121" height="78" as="geometry" />
        </mxCell>
        <mxCell id="Oas6D64xn_ZSXrLgNk8P-86" value="" style="line;strokeWidth=1;fillColor=none;align=left;verticalAlign=middle;spacingTop=-1;spacingLeft=3;spacingRight=3;rotatable=0;labelPosition=right;points=[];portConstraint=eastwest;" vertex="1" parent="Oas6D64xn_ZSXrLgNk8P-84">
          <mxGeometry y="104" width="121" height="8" as="geometry" />
        </mxCell>
        <mxCell id="Oas6D64xn_ZSXrLgNk8P-87" style="edgeStyle=orthogonalEdgeStyle;rounded=0;orthogonalLoop=1;jettySize=auto;html=1;entryX=0.5;entryY=1;entryDx=0;entryDy=0;startArrow=none;startFill=0;endArrow=block;endFill=0;exitX=0.5;exitY=0;exitDx=0;exitDy=0;" edge="1" parent="1" source="Oas6D64xn_ZSXrLgNk8P-81" target="Oas6D64xn_ZSXrLgNk8P-66">
          <mxGeometry relative="1" as="geometry" />
        </mxCell>
        <mxCell id="Oas6D64xn_ZSXrLgNk8P-88" style="edgeStyle=orthogonalEdgeStyle;rounded=0;orthogonalLoop=1;jettySize=auto;html=1;fontSize=17;fontColor=#EA6B66;startArrow=none;startFill=0;endArrow=block;endFill=0;entryX=0;entryY=0.5;entryDx=0;entryDy=0;exitX=0.5;exitY=0;exitDx=0;exitDy=0;" edge="1" parent="1" source="Oas6D64xn_ZSXrLgNk8P-89" target="Oas6D64xn_ZSXrLgNk8P-55">
          <mxGeometry relative="1" as="geometry">
            <mxPoint x="229.30769230769238" y="445.0769230769231" as="targetPoint" />
          </mxGeometry>
        </mxCell>
        <mxCell id="Oas6D64xn_ZSXrLgNk8P-89" value="(Occurrence de) piqûre(s)" style="swimlane;fontStyle=1;align=center;verticalAlign=top;childLayout=stackLayout;horizontal=1;startSize=26;horizontalStack=0;resizeParent=1;resizeParentMax=0;resizeLast=0;collapsible=1;marginBottom=0;fillColor=#cce5ff;strokeColor=#36393d;" vertex="1" parent="1">
          <mxGeometry x="-217" y="483" width="300" height="80" as="geometry" />
        </mxCell>
        <mxCell id="Oas6D64xn_ZSXrLgNk8P-90" value="+ densité agressive (nb. piqûres / homme / nuit): real" style="text;strokeColor=none;fillColor=none;align=left;verticalAlign=top;spacingLeft=4;spacingRight=4;overflow=hidden;rotatable=0;points=[[0,0.5],[1,0.5]];portConstraint=eastwest;" vertex="1" parent="Oas6D64xn_ZSXrLgNk8P-89">
          <mxGeometry y="26" width="300" height="44" as="geometry" />
        </mxCell>
        <mxCell id="Oas6D64xn_ZSXrLgNk8P-91" value="" style="line;strokeWidth=1;fillColor=none;align=left;verticalAlign=middle;spacingTop=-1;spacingLeft=3;spacingRight=3;rotatable=0;labelPosition=right;points=[];portConstraint=eastwest;" vertex="1" parent="Oas6D64xn_ZSXrLgNk8P-89">
          <mxGeometry y="70" width="300" height="10" as="geometry" />
        </mxCell>
        <mxCell id="Oas6D64xn_ZSXrLgNk8P-92" style="edgeStyle=orthogonalEdgeStyle;rounded=0;orthogonalLoop=1;jettySize=auto;html=1;exitX=0.5;exitY=0;exitDx=0;exitDy=0;entryX=0.5;entryY=1;entryDx=0;entryDy=0;fontSize=17;fontColor=#EA6B66;startArrow=none;startFill=0;endArrow=block;endFill=0;" edge="1" parent="1" source="Oas6D64xn_ZSXrLgNk8P-93" target="Oas6D64xn_ZSXrLgNk8P-89">
          <mxGeometry relative="1" as="geometry" />
        </mxCell>
        <mxCell id="Oas6D64xn_ZSXrLgNk8P-93" value="(Occurrence de) piqûre(s) par vecteur(s) infecté(s)" style="swimlane;fontStyle=1;align=center;verticalAlign=top;childLayout=stackLayout;horizontal=1;startSize=26;horizontalStack=0;resizeParent=1;resizeParentMax=0;resizeLast=0;collapsible=1;marginBottom=0;fillColor=#dae8fc;strokeColor=#6c8ebf;gradientDirection=east;gradientColor=#E6D0DE;" vertex="1" parent="1">
          <mxGeometry x="-227" y="630" width="320" height="80" as="geometry" />
        </mxCell>
        <mxCell id="Oas6D64xn_ZSXrLgNk8P-94" value="+ ..." style="text;strokeColor=none;fillColor=none;align=left;verticalAlign=top;spacingLeft=4;spacingRight=4;overflow=hidden;rotatable=0;points=[[0,0.5],[1,0.5]];portConstraint=eastwest;" vertex="1" parent="Oas6D64xn_ZSXrLgNk8P-93">
          <mxGeometry y="26" width="320" height="44" as="geometry" />
        </mxCell>
        <mxCell id="Oas6D64xn_ZSXrLgNk8P-95" value="" style="line;strokeWidth=1;fillColor=none;align=left;verticalAlign=middle;spacingTop=-1;spacingLeft=3;spacingRight=3;rotatable=0;labelPosition=right;points=[];portConstraint=eastwest;" vertex="1" parent="Oas6D64xn_ZSXrLgNk8P-93">
          <mxGeometry y="70" width="320" height="10" as="geometry" />
        </mxCell>
        <mxCell id="Oas6D64xn_ZSXrLgNk8P-96" style="edgeStyle=orthogonalEdgeStyle;rounded=0;orthogonalLoop=1;jettySize=auto;html=1;fontSize=17;fontColor=#EA6B66;startArrow=none;startFill=0;endArrow=none;endFill=0;entryX=0;entryY=0.169;entryDx=0;entryDy=0;entryPerimeter=0;" edge="1" parent="1" source="Oas6D64xn_ZSXrLgNk8P-98" target="Oas6D64xn_ZSXrLgNk8P-72">
          <mxGeometry relative="1" as="geometry">
            <mxPoint x="763" y="612" as="targetPoint" />
          </mxGeometry>
        </mxCell>
        <mxCell id="Oas6D64xn_ZSXrLgNk8P-97" style="edgeStyle=orthogonalEdgeStyle;rounded=0;orthogonalLoop=1;jettySize=auto;html=1;entryX=0;entryY=0.25;entryDx=0;entryDy=0;fontSize=17;fontColor=#EA6B66;startArrow=none;startFill=0;endArrow=none;endFill=0;exitX=0.5;exitY=1;exitDx=0;exitDy=0;exitPerimeter=0;" edge="1" parent="1" source="Oas6D64xn_ZSXrLgNk8P-98" target="Oas6D64xn_ZSXrLgNk8P-84">
          <mxGeometry relative="1" as="geometry" />
        </mxCell>
        <mxCell id="Oas6D64xn_ZSXrLgNk8P-98" value="" style="rhombus;aspect=fixed;" vertex="1" parent="1">
          <mxGeometry x="418" y="669" width="20" height="20" as="geometry" />
        </mxCell>
        <mxCell id="Oas6D64xn_ZSXrLgNk8P-99" value="Evénement" style="swimlane;fontStyle=1;align=center;verticalAlign=top;childLayout=stackLayout;horizontal=1;startSize=26;horizontalStack=0;resizeParent=1;resizeParentMax=0;resizeLast=0;collapsible=1;marginBottom=0;fillColor=#0050ef;strokeColor=#001DBC;fontColor=#ffffff;" vertex="1" parent="1">
          <mxGeometry x="348" y="550" width="160" height="78" as="geometry" />
        </mxCell>
        <mxCell id="Oas6D64xn_ZSXrLgNk8P-100" value="+ intensité: type intensité&#xa;+ probabilité" style="text;strokeColor=none;fillColor=none;align=left;verticalAlign=top;spacingLeft=4;spacingRight=4;overflow=hidden;rotatable=0;points=[[0,0.5],[1,0.5]];portConstraint=eastwest;" vertex="1" parent="Oas6D64xn_ZSXrLgNk8P-99">
          <mxGeometry y="26" width="160" height="44" as="geometry" />
        </mxCell>
        <mxCell id="Oas6D64xn_ZSXrLgNk8P-101" value="" style="line;strokeWidth=1;fillColor=none;align=left;verticalAlign=middle;spacingTop=-1;spacingLeft=3;spacingRight=3;rotatable=0;labelPosition=right;points=[];portConstraint=eastwest;" vertex="1" parent="Oas6D64xn_ZSXrLgNk8P-99">
          <mxGeometry y="70" width="160" height="8" as="geometry" />
        </mxCell>
        <mxCell id="Oas6D64xn_ZSXrLgNk8P-102" value="&quot;Phénomène&quot;" style="swimlane;fontStyle=1;align=center;verticalAlign=top;childLayout=stackLayout;horizontal=1;startSize=26;horizontalStack=0;resizeParent=1;resizeParentMax=0;resizeLast=0;collapsible=1;marginBottom=0;fillColor=#0050ef;strokeColor=#001DBC;fontColor=#ffffff;" vertex="1" parent="1">
          <mxGeometry x="150" y="659" width="160" height="78" as="geometry" />
        </mxCell>
        <mxCell id="Oas6D64xn_ZSXrLgNk8P-103" value="+ désignation: " style="text;strokeColor=none;fillColor=none;align=left;verticalAlign=top;spacingLeft=4;spacingRight=4;overflow=hidden;rotatable=0;points=[[0,0.5],[1,0.5]];portConstraint=eastwest;" vertex="1" parent="Oas6D64xn_ZSXrLgNk8P-102">
          <mxGeometry y="26" width="160" height="44" as="geometry" />
        </mxCell>
        <mxCell id="Oas6D64xn_ZSXrLgNk8P-104" value="" style="line;strokeWidth=1;fillColor=none;align=left;verticalAlign=middle;spacingTop=-1;spacingLeft=3;spacingRight=3;rotatable=0;labelPosition=right;points=[];portConstraint=eastwest;" vertex="1" parent="Oas6D64xn_ZSXrLgNk8P-102">
          <mxGeometry y="70" width="160" height="8" as="geometry" />
        </mxCell>
        <mxCell id="Oas6D64xn_ZSXrLgNk8P-105" style="edgeStyle=orthogonalEdgeStyle;rounded=0;orthogonalLoop=1;jettySize=auto;html=1;entryX=0.5;entryY=0;entryDx=0;entryDy=0;endArrow=none;endFill=0;dashed=1;exitX=0.5;exitY=1;exitDx=0;exitDy=0;" edge="1" parent="1" source="Oas6D64xn_ZSXrLgNk8P-99" target="Oas6D64xn_ZSXrLgNk8P-98">
          <mxGeometry relative="1" as="geometry" />
        </mxCell>
      </root>
    </mxGraphModel>
  </diagram>
</mxfile>
